<svg viewBox="0 0 100 100" xmlns="http://www.w3.org/2000/svg">
  <!-- Background -->
  <rect width="100" height="100" rx="18" fill="#0d1421"/>

  <!-- Person head (peeking from behind shield) -->
  <circle cx="50" cy="37" r="13" fill="#e2e8f0"/>

  <!-- Eyes — looking slightly upward/alert -->
  <circle cx="44" cy="35" r="2.8" fill="#0d1421"/>
  <circle cx="56" cy="35" r="2.8" fill="#0d1421"/>

  <!-- Eye shine -->
  <circle cx="45.2" cy="33.8" r="0.9" fill="white"/>
  <circle cx="57.2" cy="33.8" r="0.9" fill="white"/>

  <!-- Eyebrows (slightly raised = alert/peeking) -->
  <path d="M40.5 29.5 Q44 27.5 47.5 29.5" stroke="#94a3b8" stroke-width="1.8" fill="none" stroke-linecap="round"/>
  <path d="M52.5 29.5 Q56 27.5 59.5 29.5" stroke="#94a3b8" stroke-width="1.8" fill="none" stroke-linecap="round"/>

  <!-- Shield (covers body, person peeks above top rim) -->
  <path d="M18 52 L50 43 L82 52 L82 70 Q82 90 50 98 Q18 90 18 70 Z" fill="#F59E0B"/>

  <!-- Shield inner bevel highlight -->
  <path d="M26 56 L50 48.5 L74 56 L74 70 Q74 85 50 92" fill="none" stroke="#FCD34D" stroke-width="1.5" stroke-linecap="round" stroke-linejoin="round" opacity="0.5"/>

  <!-- Shoulders hint peeking from behind shield sides -->
  <ellipse cx="29" cy="54" rx="10" ry="6" fill="#cbd5e1" opacity="0.35"/>
  <ellipse cx="71" cy="54" rx="10" ry="6" fill="#cbd5e1" opacity="0.35"/>
</svg>
